<svg width="280" height="382" viewBox="0 0 280 382" fill="none" xmlns="http://www.w3.org/2000/svg">
<path d="M75.6328 216.638C75.6328 209.558 81.372 203.819 88.4516 203.819C95.5312 203.819 101.27 209.558 101.27 216.638C101.27 223.717 95.5312 229.456 88.4516 229.456C81.372 229.456 75.6328 223.717 75.6328 216.638Z" fill="#4A6FA5"/>
<path d="M178.18 216.638C178.18 209.558 183.919 203.819 190.998 203.819C198.078 203.819 203.817 209.558 203.817 216.638C203.817 223.717 198.078 229.456 190.998 229.456C183.919 229.456 178.18 223.717 178.18 216.638Z" fill="#4A6FA5"/>
<path fill-rule="evenodd" clip-rule="evenodd" d="M152.427 51.5043C223.644 57.9377 279.45 117.936 279.45 191V343.8C279.45 364.897 262.388 382 241.343 382H38.1068C17.0609 382 0 364.897 0 343.8V191C0 117.936 55.8074 57.9377 127.023 51.5043V0H152.427V51.5043ZM88.9158 178.267C67.8699 178.267 50.809 195.369 50.809 216.467C50.809 237.564 67.8699 254.667 88.9158 254.667C109.962 254.667 127.023 237.564 127.023 216.467C127.023 195.369 109.962 178.267 88.9158 178.267ZM190.534 178.267C169.488 178.267 152.427 195.369 152.427 216.467C152.427 237.564 169.488 254.667 190.534 254.667C211.579 254.667 228.641 237.564 228.641 216.467C228.641 195.369 211.579 178.267 190.534 178.267ZM228.641 305.6H50.809V280.133H228.641V305.6Z" fill="#4A6FA5"/>
</svg>
